<?xml version="1.0" encoding="utf-8"?>
<!-- Generator: Adobe Illustrator 16.0.0, SVG Export Plug-In . SVG Version: 6.00 Build 0)  -->
<!DOCTYPE svg PUBLIC "-//W3C//DTD SVG 1.1//EN" "http://www.w3.org/Graphics/SVG/1.1/DTD/svg11.dtd">
<svg version="1.1" id="Layer_1" xmlns="http://www.w3.org/2000/svg" xmlns:xlink="http://www.w3.org/1999/xlink" x="0px" y="0px"
	 width="792px" height="612px" viewBox="0 0 792 612" enable-background="new 0 0 792 612" xml:space="preserve">
<g>
	<g>
		<path fill="#FFFFFF" d="M161.517,303.717c-4.916,0-9.572-0.957-13.972-2.868c-4.399-1.911-8.238-4.506-11.515-7.783
			c-3.278-3.277-5.872-7.084-7.783-11.423c-1.912-4.339-2.868-8.966-2.868-13.881s0.956-9.558,2.868-13.926
			c1.911-4.37,4.521-8.177,7.828-11.424c3.307-3.247,7.146-5.826,11.515-7.737c4.369-1.912,9.011-2.868,13.927-2.868
			c4.005,0,8.011,0.638,12.016,1.912c4.005,1.274,8.102,3.337,12.289,6.189l-6.19,9.194c-3.156-2.124-6.281-3.641-9.375-4.551
			s-6.008-1.366-8.739-1.366c-3.277,0-6.341,0.683-9.193,2.048c-2.852,1.365-5.325,3.186-7.419,5.461s-3.732,4.885-4.915,7.828
			c-1.184,2.944-1.775,6.023-1.775,9.239s0.591,6.296,1.775,9.239c1.183,2.943,2.821,5.552,4.915,7.828
			c2.094,2.275,4.567,4.096,7.419,5.461c2.852,1.365,5.917,2.048,9.193,2.048c2.853,0,5.978-0.561,9.376-1.684
			c3.398-1.123,6.796-2.928,10.195-5.416l6.099,9.103c-4.066,3.155-8.284,5.506-12.653,7.054
			C170.165,302.943,165.825,303.717,161.517,303.717z"/>
		<linearGradient id="SVGID_1_" gradientUnits="userSpaceOnUse" x1="333.2568" y1="306.043" x2="358.2568" y2="316.4595">
			<stop  offset="0" style="stop-color:#FFFFFF"/>
			<stop  offset="1" style="stop-color:#000000"/>
		</linearGradient>
		<path fill="url(#SVGID_1_)" d="M230.758,303.717c-3.823,0-7.479-0.76-10.969-2.276c-3.489-1.517-6.569-3.564-9.239-6.143
			c-2.67-2.58-4.794-5.599-6.372-9.058c-1.578-3.458-2.367-7.1-2.367-10.922v-0.911v-41.689h12.652v41.689
			c0,2.307,0.425,4.536,1.274,6.69c0.85,2.154,2.003,4.066,3.459,5.734c1.457,1.669,3.17,3.004,5.144,4.005
			c1.972,1.001,4.111,1.502,6.417,1.502s4.445-0.501,6.417-1.502s3.687-2.336,5.144-4.005c1.456-1.668,2.609-3.58,3.458-5.734
			c0.85-2.154,1.274-4.384,1.274-6.69v-41.689h12.652v41.507c0,3.945-0.773,7.692-2.321,11.242c-1.548,3.55-3.642,6.675-6.281,9.375
			c-2.64,2.7-5.705,4.855-9.194,6.463C238.419,302.914,234.702,303.717,230.758,303.717z"/>
		<polygon fill="#FFFFFF" points="276.237,302.807 276.237,232.718 288.89,232.718 288.89,291.429 319.657,291.429 319.657,302.807 
					"/>
		<rect x="330.577" y="232.718" fill="#FFFFFF" width="12.653" height="70.089"/>
		<polygon fill="#FFFFFF" points="372.348,260.39 372.348,302.807 359.695,302.807 359.695,230.624 406.664,275.863 
			406.664,232.718 419.316,232.718 419.316,305.627 		"/>
		<path fill="#FFFFFF" d="M443.826,302.807h-13.472l33.862-72.183l33.68,72.183h-13.473l-6.826-15.929h-26.762L443.826,302.807z
			 M455.75,275.5h17.023l-8.557-19.297L455.75,275.5z"/>
		<path fill="#FFFFFF" d="M521.38,302.807h-12.652v-70.089h22.575c3.278,0,6.388,0.44,9.33,1.32s5.522,2.184,7.737,3.914
			c2.215,1.729,3.991,3.914,5.325,6.554c1.335,2.639,2.003,5.719,2.003,9.239c0,2.366-0.365,4.566-1.093,6.599
			c-0.728,2.033-1.746,3.869-3.05,5.507c-1.304,1.638-2.837,3.049-4.597,4.232c-1.759,1.183-3.641,2.139-5.643,2.868l19.388,29.855
			h-14.2l-17.749-28.126h-7.375V302.807z M521.38,263.302h10.014c1.518,0,2.973-0.243,4.369-0.728
			c1.396-0.485,2.641-1.153,3.731-2.003c1.093-0.849,1.957-1.851,2.595-3.004c0.639-1.153,0.955-2.427,0.955-3.822
			c0-1.639-0.316-3.05-0.955-4.233c-0.638-1.183-1.502-2.185-2.595-3.004c-1.091-0.819-2.351-1.426-3.776-1.82
			c-1.428-0.395-2.897-0.592-4.415-0.592h-9.923V263.302z"/>
		<rect x="573.386" y="232.718" fill="#FFFFFF" width="12.652" height="70.089"/>
		<path fill="#FFFFFF" d="M610.516,302.807h-13.474l33.862-72.183l33.68,72.183h-13.471l-6.828-15.929h-26.762L610.516,302.807z
			 M622.439,275.5h17.021l-8.557-19.297L622.439,275.5z"/>
	</g>
	<g>
		<polygon fill="#FFFFFF" points="219.172,351.889 219.172,330.38 233.682,330.38 233.682,332.904 222.027,332.904 222.027,339.604 
			232.12,339.604 232.12,342.126 222.027,342.126 222.027,351.889 		"/>
		<path fill="#FFFFFF" d="M245.813,341.422c0-3.566,0.959-6.358,2.876-8.375c1.918-2.019,4.394-3.025,7.426-3.025
			c1.987,0,3.777,0.474,5.372,1.421c1.595,0.947,2.811,2.269,3.647,3.963c0.836,1.696,1.255,3.617,1.255,5.768
			c0,2.177-0.44,4.128-1.321,5.847c-0.88,1.719-2.128,3.02-3.742,3.904c-1.615,0.883-3.356,1.326-5.226,1.326
			c-2.025,0-3.835-0.488-5.43-1.465c-1.595-0.978-2.804-2.311-3.625-4C246.224,345.095,245.813,343.306,245.813,341.422z
			 M248.756,341.472c0,2.588,0.696,4.624,2.089,6.112c1.394,1.489,3.14,2.232,5.242,2.232c2.14,0,3.901-0.751,5.285-2.254
			c1.382-1.502,2.074-3.635,2.074-6.398c0-1.745-0.296-3.271-0.887-4.573c-0.591-1.303-1.457-2.313-2.595-3.03
			c-1.139-0.719-2.417-1.077-3.834-1.077c-2.013,0-3.745,0.691-5.197,2.071C249.482,335.937,248.756,338.242,248.756,341.472z"/>
		<path fill="#FFFFFF" d="M278.458,341.422c0-3.566,0.959-6.358,2.877-8.375c1.918-2.019,4.393-3.025,7.426-3.025
			c1.987,0,3.777,0.474,5.372,1.421c1.595,0.947,2.811,2.269,3.647,3.963c0.836,1.696,1.255,3.617,1.255,5.768
			c0,2.177-0.44,4.128-1.321,5.847c-0.881,1.719-2.128,3.02-3.744,3.904c-1.614,0.883-3.356,1.326-5.225,1.326
			c-2.025,0-3.835-0.488-5.431-1.465c-1.594-0.978-2.803-2.311-3.625-4C278.87,345.095,278.458,343.306,278.458,341.422z
			 M281.402,341.472c0,2.588,0.696,4.624,2.089,6.112c1.393,1.489,3.14,2.232,5.241,2.232c2.141,0,3.902-0.751,5.286-2.254
			c1.382-1.502,2.074-3.635,2.074-6.398c0-1.745-0.296-3.271-0.887-4.573c-0.591-1.303-1.457-2.313-2.596-3.03
			c-1.138-0.719-2.417-1.077-3.833-1.077c-2.013,0-3.745,0.691-5.197,2.071C282.128,335.937,281.402,338.242,281.402,341.472z"/>
		<path fill="#FFFFFF" d="M311.976,351.889V330.38h7.41c1.672,0,2.949,0.104,3.829,0.309c1.233,0.284,2.285,0.798,3.155,1.54
			c1.134,0.959,1.983,2.186,2.545,3.676c0.563,1.493,0.844,3.197,0.844,5.113c0,1.634-0.191,3.081-0.572,4.343
			c-0.381,1.263-0.871,2.308-1.467,3.133c-0.597,0.826-1.25,1.478-1.959,1.951c-0.71,0.474-1.565,0.835-2.568,1.078
			c-1.002,0.245-2.154,0.366-3.455,0.366H311.976z M314.829,349.366h4.586c1.416,0,2.527-0.132,3.333-0.396
			c0.806-0.266,1.448-0.639,1.926-1.118c0.674-0.676,1.199-1.584,1.576-2.727c0.376-1.142,0.563-2.526,0.563-4.152
			c0-2.253-0.369-3.985-1.105-5.195c-0.738-1.21-1.634-2.021-2.689-2.433c-0.762-0.294-1.988-0.441-3.678-0.441h-4.513V349.366z"/>
		<path fill="#FFFFFF" d="M375.928,344.347l2.854,0.719c-0.596,2.335-1.667,4.117-3.216,5.345c-1.547,1.227-3.439,1.84-5.676,1.84
			c-2.314,0-4.196-0.473-5.647-1.414c-1.45-0.944-2.553-2.311-3.31-4.098c-0.757-1.79-1.135-3.711-1.135-5.765
			c0-2.238,0.427-4.19,1.282-5.858c0.855-1.666,2.071-2.931,3.648-3.796c1.578-0.865,3.314-1.298,5.21-1.298
			c2.149,0,3.956,0.547,5.421,1.641c1.465,1.095,2.486,2.635,3.063,4.619l-2.793,0.66c-0.498-1.565-1.22-2.703-2.167-3.416
			c-0.948-0.715-2.139-1.071-3.573-1.071c-1.65,0-3.029,0.396-4.138,1.188c-1.108,0.792-1.886,1.854-2.336,3.188
			c-0.449,1.335-0.673,2.711-0.673,4.128c0,1.829,0.266,3.425,0.797,4.787c0.532,1.364,1.357,2.385,2.478,3.06
			c1.121,0.674,2.334,1.011,3.641,1.011c1.588,0,2.934-0.459,4.035-1.377C374.792,347.519,375.538,346.155,375.928,344.347z"/>
		<path fill="#FFFFFF" d="M390.743,341.422c0-3.566,0.959-6.358,2.877-8.375c1.918-2.019,4.392-3.025,7.425-3.025
			c1.986,0,3.779,0.474,5.373,1.421c1.595,0.947,2.811,2.269,3.648,3.963c0.836,1.696,1.254,3.617,1.254,5.768
			c0,2.177-0.441,4.128-1.322,5.847c-0.879,1.719-2.128,3.02-3.742,3.904c-1.613,0.883-3.356,1.326-5.225,1.326
			c-2.025,0-3.835-0.488-5.431-1.465c-1.594-0.978-2.803-2.311-3.625-4C391.153,345.095,390.743,343.306,390.743,341.422z
			 M393.687,341.472c0,2.588,0.697,4.624,2.09,6.112c1.391,1.489,3.139,2.232,5.239,2.232c2.142,0,3.903-0.751,5.287-2.254
			c1.381-1.502,2.074-3.635,2.074-6.398c0-1.745-0.297-3.271-0.889-4.573c-0.59-1.303-1.456-2.313-2.594-3.03
			c-1.139-0.719-2.418-1.077-3.834-1.077c-2.013,0-3.746,0.691-5.197,2.071C394.413,335.937,393.687,338.242,393.687,341.472z"/>
		<path fill="#FFFFFF" d="M424.199,351.889V330.38h4.27l5.084,15.226c0.469,1.42,0.811,2.479,1.025,3.183
			c0.247-0.78,0.63-1.93,1.15-3.446l5.181-14.962h3.808v21.509h-2.734v-17.994l-6.277,17.994h-2.563l-6.208-18.322v18.322H424.199z"
			/>
		<path fill="#FFFFFF" d="M458.61,351.889V330.38h8.122c1.428,0,2.521,0.069,3.273,0.206c1.058,0.176,1.943,0.51,2.659,1.003
			c0.713,0.493,1.288,1.183,1.726,2.071c0.434,0.889,0.652,1.864,0.652,2.928c0,1.826-0.582,3.37-1.747,4.635
			s-3.269,1.896-6.312,1.896h-5.52v8.771H458.61z M461.465,340.595h5.559c1.84,0,3.145-0.343,3.917-1.026
			c0.771-0.687,1.159-1.648,1.159-2.893c0-0.9-0.229-1.669-0.683-2.312c-0.455-0.64-1.054-1.063-1.797-1.269
			c-0.478-0.128-1.364-0.191-2.655-0.191h-5.5V340.595z"/>
		<path fill="#FFFFFF" d="M483.57,351.889l8.252-21.509h3.128l8.761,21.509h-3.241l-2.488-6.518h-9.059l-2.332,6.518H483.57z
			 M489.762,343.058h7.33l-2.246-5.961c-0.675-1.813-1.188-3.311-1.542-4.493c-0.296,1.399-0.69,2.781-1.187,4.143L489.762,343.058z
			"/>
		<polygon fill="#FFFFFF" points="515.2,351.889 515.2,330.38 518.123,330.38 529.409,347.266 529.409,330.38 532.143,330.38 
			532.143,351.889 529.218,351.889 517.933,335.005 517.933,351.889 		"/>
		<path fill="#FFFFFF" d="M552.299,351.889v-9.109l-8.291-12.399h3.428l4.248,6.507c0.792,1.207,1.525,2.414,2.2,3.623
			c0.655-1.126,1.449-2.39,2.377-3.79l4.167-6.34h3.315l-8.59,12.399v9.109H552.299z"/>
	</g>
</g>
</svg>
